<svg width="24" height="24" viewBox="0 0 24 24" xmlns="http://www.w3.org/2000/svg">
<path d="M13.5469 12.7969L9.60938 16.7344C9.50463 16.8388 9.38034 16.9215 9.2436 16.9778C9.10687 17.0341 8.96037 17.0629 8.8125 17.0625C8.51425 17.0612 8.22831 16.9435 8.01562 16.7344C7.91075 16.6299 7.82753 16.5057 7.77075 16.3689C7.71397 16.2322 7.68474 16.0856 7.68474 15.9375C7.68474 15.7894 7.71397 15.6428 7.77075 15.5061C7.82753 15.3693 7.91075 15.2451 8.01562 15.1406L10.0312 13.125H2.25C1.95163 13.125 1.66548 13.0065 1.4545 12.7955C1.24353 12.5845 1.125 12.2984 1.125 12C1.125 11.7016 1.24353 11.4155 1.4545 11.2045C1.66548 10.9935 1.95163 10.875 2.25 10.875H10.0312L8.01562 8.85938C7.80428 8.64803 7.68555 8.36139 7.68555 8.0625C7.68555 7.76361 7.80428 7.47697 8.01562 7.26562C8.22697 7.05428 8.51361 6.93555 8.8125 6.93555C9.11139 6.93555 9.39803 7.05428 9.60938 7.26562L13.5469 11.2031C13.6518 11.3076 13.735 11.4318 13.7918 11.5686C13.8485 11.7053 13.8778 11.8519 13.8778 12C13.8778 12.1481 13.8485 12.2947 13.7918 12.4314C13.735 12.5682 13.6518 12.6924 13.5469 12.7969ZM18 2.625H12.75C12.4516 2.625 12.1655 2.74353 11.9545 2.9545C11.7435 3.16548 11.625 3.45163 11.625 3.75C11.625 4.04837 11.7435 4.33452 11.9545 4.5455C12.1655 4.75647 12.4516 4.875 12.75 4.875H17.625V19.125H12.75C12.4516 19.125 12.1655 19.2435 11.9545 19.4545C11.7435 19.6655 11.625 19.9516 11.625 20.25C11.625 20.5484 11.7435 20.8345 11.9545 21.0455C12.1655 21.2565 12.4516 21.375 12.75 21.375H18C18.4965 21.3725 18.972 21.1742 19.3231 20.8231C19.6742 20.472 19.8725 19.9965 19.875 19.5V4.5C19.8725 4.00348 19.6742 3.528 19.3231 3.1769C18.972 2.8258 18.4965 2.62746 18 2.625Z" fill="currentColor"/>
</svg>
