<svg width="22" height="20" viewBox="0 0 22 20" xmlns="http://www.w3.org/2000/svg">
<path d="M19.0799 10.182L19.0784 10.1835L11.4024 17.8595L11.3988 17.8631C11.3517 17.9107 11.2956 17.9485 11.2338 17.9743C11.1719 18.0001 11.1056 18.0134 11.0386 18.0134C10.9717 18.0134 10.9053 18.0001 10.8435 17.9743C10.7817 17.9485 10.7256 17.9107 10.6785 17.8631L10.6749 17.8595L2.79987 9.98449L2.79892 9.98355C2.34862 9.53445 1.99465 8.99821 1.75866 8.40764C1.52268 7.81706 1.40963 7.18455 1.42644 6.5488C1.44325 5.91304 1.58955 5.28739 1.85641 4.71011C2.12328 4.13282 2.50508 3.61604 2.97849 3.19135L2.97849 3.19136L2.98197 3.18822C4.7599 1.57815 7.75433 1.68711 9.61928 3.56007L9.61926 3.56009L9.62556 3.56631L10.3363 4.26758L11.0397 4.96158L11.742 4.26654L12.6518 3.36627L12.6542 3.36386C13.1045 2.91524 13.6406 2.56209 14.2306 2.32557C14.82 2.08926 15.451 1.97423 16.0859 1.98733C16.7223 2.00309 17.3488 2.14888 17.9268 2.41575C18.5053 2.68285 19.0229 3.06558 19.4479 3.54036L19.4502 3.54292C21.0548 5.32331 20.9508 8.31908 19.0799 10.182Z" stroke="currentColor" stroke-width="2" fill="none"/>
</svg>
