<svg width="27" height="23" viewBox="0 0 27 23" xmlns="http://www.w3.org/2000/svg">
<path d="M23.9415 12.2477L14.4493 21.7398C14.2761 21.9149 14.0698 22.0538 13.8425 22.1486C13.6152 22.2435 13.3714 22.2923 13.1251 22.2923C12.8788 22.2923 12.635 22.2435 12.4077 22.1486C12.1804 22.0538 11.9741 21.9149 11.8009 21.7398L2.0626 12.0016C1.38668 11.3274 0.855357 10.5225 0.501133 9.63606C0.146909 8.74958 -0.0227766 7.80017 0.00245188 6.84588C0.0276803 5.89158 0.247293 4.95247 0.64786 4.08595C1.04843 3.21943 1.62153 2.44372 2.33213 1.80625C5.0626 -0.666408 9.51572 -0.432033 12.2462 2.31015L13.1251 3.17734L14.2501 2.06406C14.9247 1.39186 15.7281 0.862713 16.6121 0.508317C17.4961 0.153921 18.4425 -0.0184378 19.3946 0.00156082C20.3511 0.0248941 21.2927 0.243841 22.1613 0.644912C23.03 1.04598 23.8073 1.62068 24.4454 2.33359C26.9063 5.06406 26.6837 9.51719 23.9415 12.2477Z" fill="currentColor"/>
</svg>
