<svg width="28" height="28" viewBox="0 0 28 28" xmlns="http://www.w3.org/2000/svg">
<path d="M22.7499 25.375H22.6012C5.40741 24.3862 2.96616 9.87875 2.62491 5.45125C2.57157 4.75716 2.79613 4.0703 3.24919 3.54176C3.70225 3.01322 4.3467 2.68629 5.04079 2.63288C5.1102 2.62763 5.17991 2.625 5.24991 2.625H9.86116C10.2117 2.62466 10.5542 2.72957 10.8443 2.92614C11.1345 3.12271 11.359 3.40189 11.4887 3.7275L12.8187 7C12.9467 7.3181 12.9785 7.66682 12.9101 8.00283C12.8416 8.33884 12.676 8.64734 12.4337 8.89L10.5699 10.7713C10.8599 12.4262 11.6518 13.9519 12.8382 15.1414C14.0247 16.331 15.5483 17.1269 17.2024 17.4212L19.1012 15.54C19.3475 15.3004 19.6589 15.1386 19.9965 15.0748C20.3342 15.011 20.6832 15.048 20.9999 15.1813L24.2987 16.5025C24.6194 16.6363 24.893 16.8625 25.0847 17.1523C25.2763 17.4422 25.3774 17.7825 25.3749 18.13V22.75C25.3749 23.4462 25.0984 24.1139 24.6061 24.6062C24.1138 25.0984 23.4461 25.375 22.7499 25.375ZM5.24991 4.375C5.135 4.37466 5.02115 4.39695 4.91486 4.4406C4.80857 4.48425 4.71192 4.54842 4.63042 4.62943C4.54893 4.71043 4.48419 4.8067 4.43989 4.91273C4.3956 5.01876 4.37263 5.13247 4.37229 5.24738C4.37229 5.27188 4.37316 5.29608 4.37491 5.32C4.77741 10.5 7.35866 22.75 22.6974 23.625C22.929 23.6389 23.1566 23.5602 23.3302 23.4063C23.5038 23.2524 23.6092 23.0358 23.6232 22.8043L23.6249 22.75V18.13L20.3262 16.8087L17.8149 19.3025L17.3949 19.25C9.78241 18.2963 8.74991 10.6838 8.74991 10.605L8.69741 10.185L11.1824 7.67375L9.86991 4.375H5.24991Z" fill="currentColor"/>
<path d="M23.625 11.375V9.625H19.6122L25.375 3.86225L24.1378 2.625L18.375 8.38775V4.375H16.625V11.375H23.625Z" fill="currentColor"/>
</svg>
