<svg width="24" height="30" viewBox="0 0 24 30" xmlns="http://www.w3.org/2000/svg">
<path d="M11 21H13V19H11V21ZM12 5C10.6868 5 9.38642 5.25866 8.17317 5.7612C6.95991 6.26375 5.85752 7.00035 4.92893 7.92893C3.05357 9.8043 2 12.3478 2 15C2 17.6522 3.05357 20.1957 4.92893 22.0711C5.85752 22.9997 6.95991 23.7362 8.17317 24.2388C9.38642 24.7413 10.6868 25 12 25C14.6522 25 17.1957 23.9464 19.0711 22.0711C20.9464 20.1957 22 17.6522 22 15C22 13.6868 21.7413 12.3864 21.2388 11.1732C20.7362 9.95991 19.9997 8.85752 19.0711 7.92893C18.1425 7.00035 17.0401 6.26375 15.8268 5.7612C14.6136 5.25866 13.3132 5 12 5ZM12 23C7.59 23 4 19.41 4 15C4 10.59 7.59 7 12 7C16.41 7 20 10.59 20 15C20 19.41 16.41 23 12 23ZM12 9C10.9391 9 9.92172 9.42143 9.17157 10.1716C8.42143 10.9217 8 11.9391 8 13H10C10 12.4696 10.2107 11.9609 10.5858 11.5858C10.9609 11.2107 11.4696 11 12 11C12.5304 11 13.0391 11.2107 13.4142 11.5858C13.7893 11.9609 14 12.4696 14 13C14 15 11 14.75 11 18H13C13 15.75 16 15.5 16 13C16 11.9391 15.5786 10.9217 14.8284 10.1716C14.0783 9.42143 13.0609 9 12 9Z" fill="currentColor"/>
</svg>
