<svg width="24" height="24" viewBox="0 0 24 24" xmlns="http://www.w3.org/2000/svg">
<path d="M20.1818 23L15.3766 18.1948C14.7273 18.7143 13.9805 19.1255 13.1364 19.4286C12.2922 19.7316 11.3939 19.8831 10.4416 19.8831C8.08225 19.8831 6.08571 19.0662 4.45195 17.4325C2.81732 15.7978 2 13.8009 2 11.4416C2 9.08225 2.81732 7.08528 4.45195 5.45065C6.08571 3.81688 8.08225 3 10.4416 3C12.8009 3 14.7978 3.81688 16.4325 5.45065C18.0662 7.08528 18.8831 9.08225 18.8831 11.4416C18.8831 12.3939 18.7316 13.2922 18.4286 14.1364C18.1255 14.9805 17.7143 15.7273 17.1948 16.3766L22 21.1818L20.1818 23ZM10.4416 17.2857C12.0649 17.2857 13.445 16.7177 14.5818 15.5818C15.7177 14.445 16.2857 13.0649 16.2857 11.4416C16.2857 9.81818 15.7177 8.4381 14.5818 7.3013C13.445 6.16537 12.0649 5.5974 10.4416 5.5974C8.81818 5.5974 7.4381 6.16537 6.3013 7.3013C5.16537 8.4381 4.5974 9.81818 4.5974 11.4416C4.5974 13.0649 5.16537 14.445 6.3013 15.5818C7.4381 16.7177 8.81818 17.2857 10.4416 17.2857Z" fill="currentColor"/>
</svg>
