<svg width="220" height="48" viewBox="0 0 220 48" fill="none" xmlns="http://www.w3.org/2000/svg">
<path d="M59.245 37.3718C59.458 37.3718 59.5112 37.4778 59.5112 37.6369V38.6441C59.5112 38.8031 59.458 38.9091 59.3515 38.9091L58.4998 39.2272V46.7015C58.4998 46.9136 58.3934 46.9666 58.2337 46.9666H57.1691C57.1158 46.9666 57.0094 46.9136 57.0094 46.9136C57.0094 46.8606 56.8497 46.7545 56.7965 46.7015L52.6445 42.1427V45.1112L53.4962 45.4293C53.6027 45.4823 53.6559 45.5883 53.6559 45.6944V46.7015C53.6559 46.9136 53.5494 46.9666 53.3897 46.9666H49.5572C49.3442 46.9666 49.291 46.8606 49.291 46.7015V45.6944C49.291 45.5353 49.3442 45.4293 49.4507 45.4293L50.3024 45.1112V39.2272L49.4507 38.9091C49.3442 38.8561 49.291 38.7501 49.291 38.6441V37.6369C49.291 37.4248 49.3975 37.3718 49.5572 37.3718H51.6331C51.6864 37.3718 51.7928 37.4248 51.7928 37.4248C51.8461 37.4248 51.9525 37.5839 52.0058 37.6369L56.1577 42.3017V39.1742L55.306 38.8561C55.1996 38.8031 55.1463 38.6971 55.1463 38.5911V37.5839C55.1463 37.3718 55.2528 37.3188 55.4125 37.3188H59.245V37.3718Z" fill="#17161D"/>
<path d="M65.8456 45.4293C65.9521 45.4823 66.0053 45.5353 66.0053 45.6944V46.7015C66.0053 46.9136 65.8989 46.9666 65.7392 46.9666H63.5567C63.397 46.9666 63.2373 46.8606 63.1309 46.6485L63.0244 46.4895C62.5454 46.9136 62.0131 47.1256 61.4808 47.1256C60.8952 47.1256 60.4161 46.9666 60.0435 46.5955C59.6709 46.2245 59.458 45.8004 59.458 45.2703C59.458 44.1041 60.3629 42.8848 62.9712 43.521V43.1499C62.9712 42.6728 62.705 42.1957 61.8534 42.1957C61.7469 42.1957 61.6404 42.1957 61.5872 42.1957L61.4275 42.7258C61.3743 42.8318 61.2678 42.8848 61.1614 42.8848H60.15C59.9371 42.8848 59.8839 42.7788 59.8839 42.6198V41.1355C59.8839 40.9765 59.9371 40.8705 60.0435 40.8175C60.7888 40.5524 61.534 40.3934 62.226 40.3934C64.0358 40.3934 65.0472 41.2945 65.0472 42.4077V45.1643L65.8456 45.4293ZM62.4921 45.4823C62.6518 45.4293 62.8115 45.3763 62.9712 45.2703V44.9522C62.013 44.5281 61.6937 44.8462 61.6937 45.1643C61.6937 45.4823 62.0663 45.5883 62.4921 45.4823Z" fill="#17161D"/>
<path d="M71.8606 46.4365C71.9139 46.5955 71.8606 46.7546 71.701 46.8076C71.009 47.0726 70.317 47.2316 69.625 47.2316C68.7733 47.2316 68.1878 47.0196 67.8152 46.5955C67.4425 46.1715 67.2829 45.6413 67.2829 45.0582V42.5138H66.5909C66.3779 42.5138 66.3247 42.4078 66.3247 42.2487V40.9765C66.3247 40.7645 66.4312 40.7115 66.5909 40.7115H67.2829V39.2802C67.2829 39.0681 67.3893 39.0151 67.549 39.0151H69.3056C69.5185 39.0151 69.5717 39.1212 69.5717 39.2802V40.7115H70.9557C71.1686 40.7115 71.2219 40.8175 71.2219 40.9765V42.2487C71.2219 42.4608 71.1154 42.5138 70.9557 42.5138H69.5717V44.2631C69.5717 44.5281 69.5717 44.5812 69.6782 44.8462C69.7847 45.0582 69.9976 45.1643 70.3702 45.1643C70.5831 45.1643 70.796 45.1113 71.0622 45.0052C71.2219 44.9522 71.3816 45.0052 71.4348 45.1643L71.8606 46.4365Z" fill="#17161D"/>
<path d="M80.2712 45.4293C80.3776 45.4823 80.4309 45.5353 80.4309 45.6944V46.7015C80.4309 46.9136 80.3244 46.9666 80.1647 46.9666H77.8758C77.7161 46.9666 77.6097 46.8606 77.5564 46.6485L77.5032 46.3835C76.8644 46.9136 76.1724 47.1786 75.374 47.1786C74.7352 47.1786 74.1497 46.9666 73.6706 46.5955C73.1916 46.1715 72.9786 45.6414 72.9786 44.9522V42.4078L72.2334 42.1957C72.127 42.1427 72.0737 42.0897 72.0737 41.9307V40.9235C72.0737 40.7114 72.1802 40.6584 72.3399 40.6584H74.8949C75.0546 40.6584 75.1611 40.7645 75.1611 40.9235L75.3208 42.6728V44.0511C75.3208 44.7402 75.6934 45.1113 76.2257 45.1113C76.4918 45.1113 76.8112 45.0052 77.1838 44.7932V42.4078L76.4386 42.1957C76.3321 42.1427 76.2789 42.0897 76.2789 41.9307V40.9235C76.2789 40.7114 76.3854 40.6584 76.5451 40.6584H79.1001C79.2598 40.6584 79.3663 40.7645 79.3663 40.9235L79.5259 42.6728V45.1643L80.2712 45.4293Z" fill="#17161D"/>
<path d="M87.4037 40.9765V42.8849C87.4037 43.0969 87.2972 43.1499 87.1376 43.1499H86.1262C85.9665 43.1499 85.86 43.0969 85.86 42.9909L85.7003 42.5138C85.5406 42.5138 85.381 42.5668 85.168 42.6728C84.9019 42.7788 84.6357 42.9379 84.4228 43.1499V45.2703L85.7003 45.4823C85.8068 45.5353 85.86 45.5883 85.86 45.7474V46.7546C85.86 46.9666 85.7536 47.0196 85.5939 47.0196H81.4419C81.229 47.0196 81.1758 46.9136 81.1758 46.7546V45.7474C81.1758 45.5883 81.229 45.4823 81.3355 45.4823L82.0807 45.2703V42.4608L81.3355 42.2487C81.229 42.1957 81.1758 42.1427 81.1758 41.9837V40.9765C81.1758 40.7645 81.2822 40.7115 81.4419 40.7115H83.7308C83.8905 40.7115 83.997 40.8175 84.0502 41.0295L84.1567 41.4006C84.5293 41.0295 84.9551 40.7645 85.4342 40.6054C86.0197 40.4464 86.6585 40.4464 87.244 40.6584C87.3505 40.7115 87.4037 40.8175 87.4037 40.9765Z" fill="#17161D"/>
<path d="M94.1108 45.4293C94.2172 45.4823 94.2705 45.5353 94.2705 45.6944V46.7015C94.2705 46.9136 94.164 46.9666 94.0043 46.9666H91.8219C91.6622 46.9666 91.5025 46.8606 91.396 46.6485L91.2896 46.4895C90.8105 46.9136 90.2782 47.1256 89.7459 47.1256C89.1604 47.1256 88.6813 46.9666 88.3087 46.5955C87.9361 46.2245 87.7231 45.8004 87.7231 45.2703C87.7231 44.1041 88.6281 42.8848 91.2363 43.521V43.1499C91.2363 42.6728 90.9702 42.1957 90.1185 42.1957C90.012 42.1957 89.9056 42.1957 89.8523 42.1957L89.6927 42.7258C89.6394 42.8318 89.533 42.8848 89.4265 42.8848H88.4151C88.2022 42.8848 88.149 42.7788 88.149 42.6198V41.1355C88.149 40.9765 88.2022 40.8705 88.3087 40.8175C89.0539 40.5524 89.7991 40.3934 90.4911 40.3934C92.3009 40.3934 93.3123 41.2945 93.3123 42.4077V45.1643L94.1108 45.4293ZM90.7573 45.4823C90.917 45.4293 91.0766 45.3763 91.2363 45.2703V44.9522C90.2782 44.5281 89.9588 44.8462 89.9588 45.1643C89.9588 45.4823 90.3314 45.5883 90.7573 45.4823Z" fill="#17161D"/>
<path d="M98.3693 45.2173V46.7015C98.3693 46.9136 98.2628 46.9666 98.1031 46.9666C95.8142 46.9666 94.9093 46.1184 94.9093 44.0511V39.1212L94.1641 38.9091C94.0576 38.8561 94.0044 38.8031 94.0044 38.6441V37.6369C94.0044 37.4248 94.1109 37.3718 94.2705 37.3718H96.8256C97.0385 37.3718 97.0917 37.4248 97.0917 37.6369L97.2514 38.379V44.0511C97.2514 44.6342 97.5176 44.8992 98.1031 44.8992C98.2628 44.8992 98.3693 45.0052 98.3693 45.2173Z" fill="#17161D"/>
<path d="M109.654 41.6656C109.867 41.6656 109.92 41.7716 109.92 41.9307V43.2559C109.92 43.4679 109.814 43.521 109.654 43.521H109.068V44.2101C109.068 45.1113 108.749 45.8534 108.11 46.3305C107.471 46.8606 106.673 47.1256 105.715 47.1256C104.757 47.1256 103.958 46.8606 103.319 46.3305C102.681 45.8004 102.361 45.0582 102.361 44.2101C102.361 43.2559 102.787 42.5138 103.639 41.9307C103 41.4006 102.681 40.6584 102.627 39.7043C102.627 38.9091 102.894 38.273 103.426 37.7959C103.958 37.3188 104.65 37.1068 105.449 37.1068C106.087 37.1068 106.673 37.2658 107.152 37.5839C107.631 37.8489 107.95 38.167 108.163 38.538C108.27 38.6971 108.27 38.8561 108.163 38.9621L107.099 40.0223C106.939 40.1283 106.833 40.1283 106.673 39.9693C106.407 39.6513 106.087 39.4392 105.768 39.4392C105.395 39.4392 105.076 39.7043 105.076 40.1283C105.076 40.6584 105.502 41.0295 106.034 41.1355C106.247 41.1885 106.3 41.2415 106.3 41.4006V42.6198C106.3 42.8318 106.194 42.8849 106.034 42.8849C105.183 43.0969 104.757 43.4679 104.757 43.998C104.757 44.5281 105.236 44.8992 105.928 44.8992C106.62 44.8992 107.152 44.4751 107.152 43.733V41.9307C107.152 41.7186 107.258 41.6656 107.418 41.6656H109.654Z" fill="#17161D"/>
<path d="M121.737 44.2631C121.737 45.0052 121.471 45.6413 120.939 46.1714C120.407 46.7015 119.768 46.9666 119.023 46.9666H114.232C114.019 46.9666 113.966 46.8606 113.966 46.7015V45.6944C113.966 45.5353 114.019 45.4293 114.126 45.4293L115.03 45.1112V39.2802L114.126 38.9621C114.019 38.9091 113.966 38.8031 113.966 38.6971V37.6899C113.966 37.4779 114.072 37.4248 114.232 37.4248H118.916C119.608 37.4248 120.194 37.6369 120.62 38.114C121.099 38.5911 121.312 39.1742 121.312 39.8103C121.312 40.6584 120.886 41.4006 120.194 41.8777C121.099 42.3017 121.737 43.2559 121.737 44.2631ZM117.532 39.4392V40.7645H118.437C118.757 40.7645 119.023 40.4464 119.023 40.0753C119.023 39.7573 118.757 39.3862 118.437 39.3862H117.532V39.4392ZM118.331 44.7932C118.81 44.7932 119.236 44.3691 119.236 43.892C119.236 43.4149 118.81 42.9909 118.331 42.9909H117.479V44.7932H118.331Z" fill="#17161D"/>
<path d="M128.817 45.4293C128.923 45.4823 128.976 45.5353 128.976 45.6944V46.7015C128.976 46.9136 128.87 46.9666 128.71 46.9666H126.528C126.368 46.9666 126.209 46.8606 126.102 46.6485L125.996 46.4895C125.517 46.9136 124.984 47.1256 124.452 47.1256C123.866 47.1256 123.387 46.9666 123.015 46.5955C122.642 46.2245 122.429 45.8004 122.429 45.2703C122.429 44.1041 123.334 42.8848 125.942 43.521V43.1499C125.942 42.6728 125.676 42.1957 124.825 42.1957C124.718 42.1957 124.612 42.1957 124.558 42.1957L124.399 42.7258C124.345 42.8318 124.239 42.8848 124.133 42.8848H123.121C122.908 42.8848 122.855 42.7788 122.855 42.6198V41.1355C122.855 40.9765 122.908 40.8705 123.015 40.8175C123.76 40.5524 124.505 40.3934 125.197 40.3934C127.007 40.3934 128.018 41.2945 128.018 42.4077V45.1643L128.817 45.4293ZM125.463 45.4823C125.623 45.4293 125.783 45.3763 125.942 45.2703V44.9522C124.984 44.5281 124.665 44.8462 124.665 45.1643C124.665 45.4823 125.037 45.5883 125.463 45.4823Z" fill="#17161D"/>
<path d="M133.129 45.2173V46.7015C133.129 46.9136 133.022 46.9666 132.862 46.9666C130.574 46.9666 129.669 46.1184 129.669 44.0511V39.1212L128.923 38.9091C128.817 38.8561 128.764 38.8031 128.764 38.6441V37.6369C128.764 37.4248 128.87 37.3718 129.03 37.3718H131.585C131.798 37.3718 131.851 37.4248 131.851 37.6369L132.011 38.379V44.0511C132.011 44.6342 132.277 44.8992 132.862 44.8992C133.022 44.8992 133.129 45.0052 133.129 45.2173Z" fill="#17161D"/>
<path d="M140.314 45.4293C140.421 45.4823 140.474 45.5353 140.474 45.6944V46.7015C140.474 46.9136 140.368 46.9666 140.208 46.9666H138.025C137.866 46.9666 137.706 46.8606 137.6 46.6485L137.493 46.4895C137.014 46.9136 136.482 47.1256 135.949 47.1256C135.364 47.1256 134.885 46.9666 134.512 46.5955C134.14 46.2245 133.927 45.8004 133.927 45.2703C133.927 44.1041 134.832 42.8848 137.44 43.521V43.1499C137.44 42.6728 137.174 42.1957 136.322 42.1957C136.216 42.1957 136.109 42.1957 136.056 42.1957L135.896 42.7258C135.843 42.8318 135.737 42.8848 135.63 42.8848H134.619C134.406 42.8848 134.353 42.7788 134.353 42.6198V41.1355C134.353 40.9765 134.406 40.8705 134.512 40.8175C135.257 40.5524 136.003 40.3934 136.695 40.3934C138.505 40.3934 139.516 41.2945 139.516 42.4077V45.1643L140.314 45.4293ZM136.961 45.4823C137.121 45.4293 137.28 45.3763 137.44 45.2703V44.9522C136.482 44.5281 136.162 44.8462 136.162 45.1643C136.162 45.4823 136.535 45.5883 136.961 45.4823Z" fill="#17161D"/>
<path d="M149.151 45.4293C149.257 45.4823 149.31 45.5353 149.31 45.6944V46.7015C149.31 46.9136 149.204 46.9666 149.044 46.9666H146.329C146.116 46.9666 146.063 46.8606 146.063 46.7015V43.574C146.063 42.8848 145.744 42.5138 145.052 42.5138C144.786 42.5138 144.466 42.6198 144.2 42.8318V45.2173L144.945 45.4293C145.052 45.4823 145.105 45.5353 145.105 45.6944V46.7015C145.105 46.9136 144.999 46.9666 144.839 46.9666H141.219C141.006 46.9666 140.953 46.8606 140.953 46.7015V45.6944C140.953 45.5353 141.006 45.4293 141.113 45.4293L141.858 45.2173V42.4078L141.113 42.1957C141.006 42.1427 140.953 42.0897 140.953 41.9307V40.9235C140.953 40.7114 141.06 40.6584 141.219 40.6584H143.508C143.668 40.6584 143.774 40.7645 143.828 40.9765L143.881 41.2415C144.52 40.7115 145.212 40.4464 146.01 40.4464C146.649 40.4464 147.234 40.6584 147.713 41.0295C148.192 41.4536 148.405 41.9837 148.405 42.6728V45.2173L149.151 45.4293Z" fill="#17161D"/>
<path d="M155.059 41.0295C155.113 41.0825 155.166 41.1355 155.166 41.1885V42.9378C155.166 43.1499 155.059 43.2029 154.9 43.2029H153.888C153.729 43.2029 153.622 43.1499 153.622 43.0439L153.462 42.5138C153.356 42.4608 153.303 42.4608 153.196 42.4608C152.451 42.4608 151.866 43.0439 151.866 43.786C151.866 44.5281 152.504 45.1112 153.25 45.1112C153.462 45.1112 153.782 45.0582 154.048 44.9522C154.261 44.8992 154.367 44.8992 154.421 45.0052L155.113 46.1714C155.219 46.3305 155.219 46.4895 155.113 46.5425C154.527 46.9666 153.888 47.1256 153.09 47.1256C152.132 47.1256 151.333 46.8076 150.641 46.1184C149.949 45.4823 149.63 44.6872 149.63 43.733C149.63 42.7788 149.949 41.9837 150.641 41.3476C151.333 40.7114 152.132 40.3404 153.09 40.3404C153.782 40.4464 154.474 40.6584 155.059 41.0295Z" fill="#17161D"/>
<path d="M161.234 41.3476C161.82 41.9307 162.139 42.6728 162.192 43.521C162.192 43.68 162.192 43.839 162.192 43.998C162.139 44.2101 162.086 44.2631 161.873 44.2631H157.987C158.04 44.7932 158.466 45.2173 159.211 45.2173C159.531 45.2173 160.01 45.1113 160.595 44.8992C160.755 44.8462 160.915 44.8992 160.968 45.0582L161.554 46.2775C161.607 46.4365 161.607 46.5425 161.394 46.6485C160.702 47.0196 160.01 47.1786 159.265 47.1786C158.253 47.1786 157.455 46.8606 156.763 46.2245C156.124 45.5883 155.805 44.7932 155.805 43.839C155.805 42.8848 156.124 42.0897 156.71 41.4536C157.348 40.8175 158.094 40.4464 159.052 40.4464C159.957 40.4464 160.702 40.7114 161.234 41.3476ZM160.116 43.0439C160.01 41.9837 158.307 41.9837 158.2 43.0439H160.116Z" fill="#17161D"/>
<path d="M170.602 45.4293C170.709 45.4823 170.762 45.5353 170.762 45.6944V46.7015C170.762 46.9136 170.656 46.9666 170.496 46.9666H168.207C168.047 46.9666 167.941 46.8606 167.888 46.6485L167.834 46.5425C167.355 46.8076 166.876 46.9666 166.504 47.0726C165.545 47.2316 164.694 46.9666 164.002 46.3305C163.31 45.6414 162.937 44.7932 162.99 43.786C163.044 42.8848 163.31 42.0897 163.949 41.4536C164.587 40.8175 165.332 40.4994 166.237 40.5524C166.663 40.5524 167.089 40.6584 167.515 40.8175V39.1212L166.77 38.9091C166.663 38.8561 166.61 38.8031 166.61 38.6441V37.6369C166.61 37.4248 166.716 37.3718 166.876 37.3718H169.431C169.644 37.3718 169.697 37.4248 169.697 37.6369L169.857 38.326V45.1643L170.602 45.4293ZM167.515 44.8992V42.6198C167.196 42.4608 166.929 42.4077 166.663 42.4077C165.865 42.4077 165.226 43.0439 165.226 43.786C165.226 44.5281 165.865 45.1112 166.61 45.1112C166.876 45.1643 167.196 45.0582 167.515 44.8992Z" fill="#17161D"/>
<path d="M20.4936 19.4016C20.4936 21.4159 19.8016 23.0592 18.3644 24.4375C16.9804 25.8157 15.3303 26.5048 13.3075 26.5048H0.745222C0.212921 26.5048 0 26.2398 0 25.7627V23.1652C0 22.7412 0.159691 22.5291 0.479072 22.4231L2.8212 21.575V6.14913L0.479072 5.30097C0.159691 5.19495 0 4.9299 0 4.55884V1.96136C0 1.43127 0.266151 1.21923 0.745222 1.21923H13.0414C14.798 1.21923 16.3416 1.85535 17.5659 3.07457C18.8435 4.3468 19.429 5.83107 19.429 7.58039C19.429 9.8068 18.3112 11.8212 16.4481 12.9874C18.8967 14.2066 20.4936 16.645 20.4936 19.4016ZM9.3685 6.62621V10.1779H11.7106C12.5623 10.1779 13.3075 9.27671 13.3075 8.42855C13.3075 7.5804 12.5623 6.67922 11.7106 6.67922H9.3685V6.62621ZM11.5509 20.7268C12.8817 20.7268 13.9463 19.6666 13.9463 18.3414C13.9463 17.0161 12.8817 15.9559 11.5509 15.9559H9.3685V20.7268H11.5509Z" fill="#17161D"/>
<path d="M25.1778 4.50582C27.7328 1.96136 30.9266 0.636124 34.5995 0.636124C38.2724 0.636124 41.413 1.96136 44.0212 4.50582C46.5763 7.05029 47.907 10.2309 47.907 13.8885C47.907 17.5462 46.5763 20.6738 43.968 23.2713C41.413 25.8157 38.2724 27.141 34.5995 27.141C30.9266 27.141 27.7861 25.8157 25.1778 23.2713C22.6227 20.6738 21.292 17.5462 21.292 13.8885C21.292 10.2309 22.5695 7.1033 25.1778 4.50582ZM34.5463 6.62621C32.5768 6.62621 30.9266 7.31534 29.7023 8.7466C28.4248 10.1779 27.8393 11.8742 27.8393 13.8885C27.8393 15.9029 28.478 17.5992 29.7023 19.0305C30.9799 20.4618 32.63 21.1509 34.5463 21.1509C36.5158 21.1509 38.1127 20.4618 39.3902 19.0305C40.6677 17.5992 41.3065 15.9029 41.3065 13.8885C41.3065 11.8742 40.6677 10.1779 39.3902 8.7466C38.1127 7.31534 36.5158 6.62621 34.5463 6.62621Z" fill="#17161D"/>
<path d="M81.7616 1.21923C82.2939 1.21923 82.5068 1.48428 82.5068 1.96136V4.55883C82.5068 4.98291 82.3471 5.24796 82.0278 5.30097L80.8035 5.56602L75.2143 25.8157C75.0546 26.3988 74.8417 26.5579 74.2562 26.5579H71.435C70.8494 26.5579 70.743 26.3988 70.4768 25.8157L65.2603 12.7753L60.0437 25.8157C59.7776 26.3988 59.6711 26.5579 59.0856 26.5579H56.3176C55.6788 26.5579 55.5724 26.4518 55.3595 25.8157L49.7171 5.72505L48.1734 5.35398C47.854 5.30097 47.6943 5.03593 47.6943 4.61185V1.96136C47.6943 1.43127 47.9605 1.21923 48.4396 1.21923H57.0096C57.5419 1.21923 57.7548 1.48428 57.7548 1.96136V4.55883C57.7548 4.98291 57.5951 5.24796 57.2758 5.30097L55.945 5.56602L58.1274 13.8355L63.0246 1.85534C63.2908 1.21922 63.3972 1.1132 63.9827 1.1132H66.3781C66.9636 1.1132 67.0701 1.21922 67.3362 1.85534L72.2866 13.8355L74.4158 5.61903L72.8722 5.24797C72.5528 5.19496 72.3931 4.9299 72.3931 4.50582V1.96136C72.3931 1.43127 72.6593 1.21923 73.1383 1.21923H75.9595V1.27224C76.0128 1.21923 76.1192 1.21923 76.2257 1.21923H81.7616Z" fill="#17161D"/>
<path d="M103.958 18.2883C104.491 18.2883 104.703 18.5534 104.703 19.0305V25.7627C104.703 26.2928 104.437 26.5048 103.958 26.5048H85.381C84.8487 26.5048 84.6357 26.2398 84.6357 25.7627V23.1652C84.6357 22.7412 84.7954 22.5291 85.1148 22.4231L87.4569 21.575V6.14913L85.1148 5.30097C84.7954 5.19495 84.6357 4.9299 84.6357 4.55884V1.96136C84.6357 1.43127 84.9019 1.21923 85.381 1.21923H95.8141C96.3464 1.21923 96.5593 1.48428 96.5593 1.96136V4.55884C96.5593 4.98291 96.3996 5.19495 96.0802 5.30097L93.951 6.04312V21.0979H99.7531L100.605 18.7654C100.711 18.4474 100.977 18.2883 101.35 18.2883H103.958Z" fill="#17161D"/>
<path d="M148.406 1.21923C148.938 1.21923 149.151 1.48428 149.151 1.96136V4.55883C149.151 4.98291 148.991 5.24796 148.672 5.30097L147.448 5.56602L141.858 25.8157C141.699 26.3988 141.486 26.5579 140.9 26.5579H138.079C137.493 26.5579 137.387 26.3988 137.121 25.8157L131.904 12.7753L126.688 25.8157C126.422 26.3988 126.315 26.5579 125.73 26.5579H122.962C122.323 26.5579 122.216 26.4518 122.004 25.8157L116.361 5.72505L114.817 5.35398C114.498 5.30097 114.338 5.03593 114.338 4.61185V1.96136C114.338 1.43127 114.605 1.21923 115.084 1.21923H123.707C124.239 1.21923 124.452 1.48428 124.452 1.96136V4.55883C124.452 4.98291 124.292 5.24796 123.973 5.30097L122.642 5.56602L124.825 13.8355L129.722 1.85534C129.988 1.21922 130.094 1.1132 130.68 1.1132H133.075C133.661 1.1132 133.767 1.21922 134.034 1.85534L138.984 13.8355L141.113 5.61903L139.569 5.24797C139.25 5.19496 139.09 4.9299 139.09 4.50582V1.96136C139.09 1.43127 139.357 1.21923 139.836 1.21923H142.657V1.27224C142.71 1.21923 142.816 1.21923 142.923 1.21923H148.406Z" fill="#17161D"/>
<path d="M152.983 4.50582C155.538 1.96136 158.732 0.636124 162.405 0.636124C166.078 0.636124 169.219 1.96136 171.827 4.50582C174.382 7.05029 175.713 10.2309 175.713 13.8885C175.713 17.5462 174.382 20.6738 171.774 23.2713C169.219 25.8157 166.078 27.141 162.405 27.141C158.732 27.141 155.592 25.8157 152.983 23.2713C150.428 20.6738 149.098 17.5462 149.098 13.8885C149.098 10.2309 150.375 7.1033 152.983 4.50582ZM162.352 6.62621C160.382 6.62621 158.732 7.31534 157.508 8.7466C156.23 10.1779 155.645 11.8742 155.645 13.8885C155.645 15.9029 156.284 17.5992 157.508 19.0305C158.786 20.4618 160.436 21.1509 162.352 21.1509C164.268 21.1509 165.918 20.4618 167.196 19.0305C168.473 17.5992 169.112 15.9029 169.112 13.8885C169.112 11.8742 168.473 10.1779 167.196 8.7466C165.918 7.31534 164.321 6.62621 162.352 6.62621Z" fill="#17161D"/>
<path d="M209.567 1.21923C210.099 1.21923 210.312 1.48428 210.312 1.96136V4.55883C210.312 4.98291 210.152 5.24796 209.833 5.30097L208.609 5.56602L202.966 25.8157C202.807 26.3988 202.594 26.5579 202.008 26.5579H199.187C198.601 26.5579 198.495 26.3988 198.229 25.8157L193.012 12.7753L187.796 25.8157C187.53 26.3988 187.423 26.5579 186.838 26.5579H184.07C183.431 26.5579 183.324 26.4518 183.111 25.8157L177.469 5.72505L175.925 5.35398C175.606 5.30097 175.446 5.03593 175.446 4.61185V1.96136C175.446 1.43127 175.712 1.21923 176.192 1.21923H184.762C185.294 1.21923 185.507 1.48428 185.507 1.96136V4.55883C185.507 4.98291 185.347 5.24796 185.028 5.30097L183.697 5.56602L185.879 13.8355L190.777 1.85534C191.043 1.21922 191.149 1.1132 191.735 1.1132H194.13C194.716 1.1132 194.822 1.21922 195.088 1.85534L200.039 13.8355L202.168 5.61903L200.624 5.24797C200.305 5.19496 200.145 4.9299 200.145 4.50582V1.96136C200.145 1.43127 200.411 1.21923 200.89 1.21923H203.711V1.27224C203.765 1.21923 203.871 1.21923 203.978 1.21923H209.567Z" fill="#17161D"/>
<path d="M215.263 0.424087H216.114V2.38544H216.54V0.424087H217.392V0H215.263V0.424087Z" fill="#1D3654"/>
<path d="M219.787 0H219.362L218.67 1.74933L217.978 0H217.552L217.392 2.38544H217.818L217.924 0.901171L218.563 2.38544H218.829L219.468 0.901171L219.575 2.38544H220L219.787 0Z" fill="#1D3654"/>
</svg>
