<svg width="0" height="0" class="hidden">
  <symbol xmlns="http://www.w3.org/2000/svg" viewBox="0 0 24 24" id="ic_account">
    <path d="M13.5469 12.7969L9.60938 16.7344C9.50463 16.8388 9.38034 16.9215 9.2436 16.9778C9.10687 17.0341 8.96037 17.0629 8.8125 17.0625C8.51425 17.0612 8.22831 16.9435 8.01562 16.7344C7.91075 16.6299 7.82753 16.5057 7.77075 16.3689C7.71397 16.2322 7.68474 16.0856 7.68474 15.9375C7.68474 15.7894 7.71397 15.6428 7.77075 15.5061C7.82753 15.3693 7.91075 15.2451 8.01562 15.1406L10.0312 13.125H2.25C1.95163 13.125 1.66548 13.0065 1.4545 12.7955C1.24353 12.5845 1.125 12.2984 1.125 12C1.125 11.7016 1.24353 11.4155 1.4545 11.2045C1.66548 10.9935 1.95163 10.875 2.25 10.875H10.0312L8.01562 8.85938C7.80428 8.64803 7.68555 8.36139 7.68555 8.0625C7.68555 7.76361 7.80428 7.47697 8.01562 7.26562C8.22697 7.05428 8.51361 6.93555 8.8125 6.93555C9.11139 6.93555 9.39803 7.05428 9.60938 7.26562L13.5469 11.2031C13.6518 11.3076 13.735 11.4318 13.7918 11.5686C13.8485 11.7053 13.8778 11.8519 13.8778 12C13.8778 12.1481 13.8485 12.2947 13.7918 12.4314C13.735 12.5682 13.6518 12.6924 13.5469 12.7969ZM18 2.625H12.75C12.4516 2.625 12.1655 2.74353 11.9545 2.9545C11.7435 3.16548 11.625 3.45163 11.625 3.75C11.625 4.04837 11.7435 4.33452 11.9545 4.5455C12.1655 4.75647 12.4516 4.875 12.75 4.875H17.625V19.125H12.75C12.4516 19.125 12.1655 19.2435 11.9545 19.4545C11.7435 19.6655 11.625 19.9516 11.625 20.25C11.625 20.5484 11.7435 20.8345 11.9545 21.0455C12.1655 21.2565 12.4516 21.375 12.75 21.375H18C18.4965 21.3725 18.972 21.1742 19.3231 20.8231C19.6742 20.472 19.8725 19.9965 19.875 19.5V4.5C19.8725 4.00348 19.6742 3.528 19.3231 3.1769C18.972 2.8258 18.4965 2.62746 18 2.625Z" fill="currentColor"></path>
  </symbol>
  <symbol xmlns="http://www.w3.org/2000/svg" viewBox="0 0 15 14" id="ic_arrow_hor">
    <path d="M15 6.97656L8.21875 13.8047L6.625 12.1953L10.6875 8.10156H0.28125V5.92969H10.75L6.625 1.80469L8.21875 0.195312L15 6.97656Z" fill="currentColor"></path>
  </symbol>
  <symbol xmlns="http://www.w3.org/2000/svg" viewBox="0 0 24 24" id="ic_cart">
    <path d="M7 22C6.45 22 5.97933 21.8043 5.588 21.413C5.196 21.021 5 20.55 5 20C5 19.45 5.196 18.979 5.588 18.587C5.97933 18.1957 6.45 18 7 18C7.55 18 8.02067 18.1957 8.412 18.587C8.804 18.979 9 19.45 9 20C9 20.55 8.804 21.021 8.412 21.413C8.02067 21.8043 7.55 22 7 22ZM17 22C16.45 22 15.9793 21.8043 15.588 21.413C15.196 21.021 15 20.55 15 20C15 19.45 15.196 18.979 15.588 18.587C15.9793 18.1957 16.45 18 17 18C17.55 18 18.021 18.1957 18.413 18.587C18.8043 18.979 19 19.45 19 20C19 20.55 18.8043 21.021 18.413 21.413C18.021 21.8043 17.55 22 17 22ZM6.15 6L8.55 11H15.55L18.3 6H6.15ZM5.2 4H19.95C20.3333 4 20.625 4.17067 20.825 4.512C21.025 4.854 21.0333 5.2 20.85 5.55L17.3 11.95C17.1167 12.2833 16.8707 12.5417 16.562 12.725C16.254 12.9083 15.9167 13 15.55 13H8.1L7 15H19V17H7C6.25 17 5.68333 16.6707 5.3 16.012C4.91667 15.354 4.9 14.7 5.25 14.05L6.6 11.6L3 4H1V2H4.25L5.2 4ZM8.55 11H15.55H8.55Z" fill="currentColor"></path>
  </symbol>
  <symbol xmlns="http://www.w3.org/2000/svg" viewBox="0 0 13 13" id="ic_close">
    <rect x="2.08984" y="0.109642" width="15.4278" height="1.54278" transform="rotate(45 2.08984 0.109642)" fill="currentColor"></rect>
    <rect x="1" y="10.9091" width="15.4278" height="1.54278" transform="rotate(-45 1 10.9091)" fill="currentColor"></rect>
  </symbol>
  <symbol xmlns="http://www.w3.org/2000/svg" viewBox="0 0 24 24" id="ic_copy">
    <path fill-rule="evenodd" clip-rule="evenodd" d="M16 1H4C2.895 1 2 1.895 2 3V17H4V3H16V1ZM19 5H8C6.895 5 6 5.896 6 7V21C6 22.104 6.895 23 8 23H19C20.104 23 21 22.104 21 21V7C21 5.896 20.104 5 19 5ZM8 7H19V21H8V7Z" fill="currentColor"></path>
  </symbol>
  <symbol xmlns="http://www.w3.org/2000/svg" viewBox="0 0 28 28" id="ic_email">
    <path d="M24.5 5.25H3.5C3.03587 5.25 2.59075 5.43437 2.26256 5.76256C1.93437 6.09075 1.75 6.53587 1.75 7V21C1.75 21.4641 1.93437 21.9092 2.26256 22.2374C2.59075 22.5656 3.03587 22.75 3.5 22.75H24.5C24.9641 22.75 25.4092 22.5656 25.7374 22.2374C26.0656 21.9092 26.25 21.4641 26.25 21V7C26.25 6.53587 26.0656 6.09075 25.7374 5.76256C25.4092 5.43437 24.9641 5.25 24.5 5.25ZM22.575 7L14 12.9325L5.425 7H22.575ZM3.5 21V7.79625L13.5013 14.7175C13.6477 14.8191 13.8217 14.8736 14 14.8736C14.1783 14.8736 14.3523 14.8191 14.4987 14.7175L24.5 7.79625V21H3.5Z" fill="currentColor"></path>
  </symbol>
  <symbol xmlns="http://www.w3.org/2000/svg" viewBox="0 0 22 20" id="ic_favorite">
    <path d="M19.0799 10.182L19.0784 10.1835L11.4024 17.8595L11.3988 17.8631C11.3517 17.9107 11.2956 17.9485 11.2338 17.9743C11.1719 18.0001 11.1056 18.0134 11.0386 18.0134C10.9717 18.0134 10.9053 18.0001 10.8435 17.9743C10.7817 17.9485 10.7256 17.9107 10.6785 17.8631L10.6749 17.8595L2.79987 9.98449L2.79892 9.98355C2.34862 9.53445 1.99465 8.99821 1.75866 8.40764C1.52268 7.81706 1.40963 7.18455 1.42644 6.5488C1.44325 5.91304 1.58955 5.28739 1.85641 4.71011C2.12328 4.13282 2.50508 3.61604 2.97849 3.19135L2.97849 3.19136L2.98197 3.18822C4.7599 1.57815 7.75433 1.68711 9.61928 3.56007L9.61926 3.56009L9.62556 3.56631L10.3363 4.26758L11.0397 4.96158L11.742 4.26654L12.6518 3.36627L12.6542 3.36386C13.1045 2.91524 13.6406 2.56209 14.2306 2.32557C14.82 2.08926 15.451 1.97423 16.0859 1.98733C16.7223 2.00309 17.3488 2.14888 17.9268 2.41575C18.5053 2.68285 19.0229 3.06558 19.4479 3.54036L19.4502 3.54292C21.0548 5.32331 20.9508 8.31908 19.0799 10.182Z" stroke="currentColor" stroke-width="2" fill="none"></path>
  </symbol>
  <symbol xmlns="http://www.w3.org/2000/svg" viewBox="0 0 27 23" id="ic_favorite2">
    <path d="M23.9415 12.2477L14.4493 21.7398C14.2761 21.9149 14.0698 22.0538 13.8425 22.1486C13.6152 22.2435 13.3714 22.2923 13.1251 22.2923C12.8788 22.2923 12.635 22.2435 12.4077 22.1486C12.1804 22.0538 11.9741 21.9149 11.8009 21.7398L2.0626 12.0016C1.38668 11.3274 0.855357 10.5225 0.501133 9.63606C0.146909 8.74958 -0.0227766 7.80017 0.00245188 6.84588C0.0276803 5.89158 0.247293 4.95247 0.64786 4.08595C1.04843 3.21943 1.62153 2.44372 2.33213 1.80625C5.0626 -0.666408 9.51572 -0.432033 12.2462 2.31015L13.1251 3.17734L14.2501 2.06406C14.9247 1.39186 15.7281 0.862713 16.6121 0.508317C17.4961 0.153921 18.4425 -0.0184378 19.3946 0.00156082C20.3511 0.0248941 21.2927 0.243841 22.1613 0.644912C23.03 1.04598 23.8073 1.62068 24.4454 2.33359C26.9063 5.06406 26.6837 9.51719 23.9415 12.2477Z" fill="currentColor"></path>
  </symbol>
  <symbol xmlns="http://www.w3.org/2000/svg" viewBox="0 0 30 20" id="ic_menu">
    <rect width="30" height="2" fill="currentColor"></rect>
    <rect y="9" width="30" height="2" fill="currentColor"></rect>
    <rect y="18" width="30" height="2" fill="currentColor"></rect>
  </symbol>
  <symbol xmlns="http://www.w3.org/2000/svg" viewBox="0 0 24 24" id="ic_notice">
    <path d="M12 22C13.3135 22.0017 14.6143 21.7438 15.8278 21.2412C17.0413 20.7385 18.1435 20.001 19.071 19.071C20.001 18.1435 20.7385 17.0413 21.2412 15.8278C21.7438 14.6143 22.0017 13.3135 22 12C22.0017 10.6865 21.7438 9.3857 21.2411 8.17222C20.7385 6.95875 20.001 5.85656 19.071 4.92901C18.1435 3.99902 17.0413 3.26151 15.8278 2.75885C14.6143 2.25619 13.3135 1.99831 12 2.00001C10.6865 1.99833 9.3857 2.25623 8.17222 2.75889C6.95875 3.26154 5.85656 3.99904 4.92901 4.92901C3.99904 5.85656 3.26154 6.95875 2.75889 8.17222C2.25623 9.3857 1.99833 10.6865 2.00001 12C1.99831 13.3135 2.25619 14.6143 2.75885 15.8278C3.26151 17.0413 3.99902 18.1435 4.92901 19.071C5.85656 20.001 6.95875 20.7385 8.17222 21.2411C9.3857 21.7438 10.6865 22.0017 12 22V22Z" stroke="currentColor" stroke-width="2" stroke-linejoin="round" fill="none"></path>
    <path fill-rule="evenodd" clip-rule="evenodd" d="M12 18.5C12.3315 18.5 12.6495 18.3683 12.8839 18.1339C13.1183 17.8995 13.25 17.5815 13.25 17.25C13.25 16.9185 13.1183 16.6005 12.8839 16.3661C12.6495 16.1317 12.3315 16 12 16C11.6685 16 11.3505 16.1317 11.1161 16.3661C10.8817 16.6005 10.75 16.9185 10.75 17.25C10.75 17.5815 10.8817 17.8995 11.1161 18.1339C11.3505 18.3683 11.6685 18.5 12 18.5Z" fill="currentColor"></path>
    <path d="M12 6V14" stroke="currentColor" stroke-width="2" stroke-linecap="round" stroke-linejoin="round" fill="none"></path>
  </symbol>
  <symbol xmlns="http://www.w3.org/2000/svg" viewBox="0 0 28 28" id="ic_phone">
    <path d="M22.7499 25.375H22.6012C5.40741 24.3862 2.96616 9.87875 2.62491 5.45125C2.57157 4.75716 2.79613 4.0703 3.24919 3.54176C3.70225 3.01322 4.3467 2.68629 5.04079 2.63288C5.1102 2.62763 5.17991 2.625 5.24991 2.625H9.86116C10.2117 2.62466 10.5542 2.72957 10.8443 2.92614C11.1345 3.12271 11.359 3.40189 11.4887 3.7275L12.8187 7C12.9467 7.3181 12.9785 7.66682 12.9101 8.00283C12.8416 8.33884 12.676 8.64734 12.4337 8.89L10.5699 10.7713C10.8599 12.4262 11.6518 13.9519 12.8382 15.1414C14.0247 16.331 15.5483 17.1269 17.2024 17.4212L19.1012 15.54C19.3475 15.3004 19.6589 15.1386 19.9965 15.0748C20.3342 15.011 20.6832 15.048 20.9999 15.1813L24.2987 16.5025C24.6194 16.6363 24.893 16.8625 25.0847 17.1523C25.2763 17.4422 25.3774 17.7825 25.3749 18.13V22.75C25.3749 23.4462 25.0984 24.1139 24.6061 24.6062C24.1138 25.0984 23.4461 25.375 22.7499 25.375ZM5.24991 4.375C5.135 4.37466 5.02115 4.39695 4.91486 4.4406C4.80857 4.48425 4.71192 4.54842 4.63042 4.62943C4.54893 4.71043 4.48419 4.8067 4.43989 4.91273C4.3956 5.01876 4.37263 5.13247 4.37229 5.24738C4.37229 5.27188 4.37316 5.29608 4.37491 5.32C4.77741 10.5 7.35866 22.75 22.6974 23.625C22.929 23.6389 23.1566 23.5602 23.3302 23.4063C23.5038 23.2524 23.6092 23.0358 23.6232 22.8043L23.6249 22.75V18.13L20.3262 16.8087L17.8149 19.3025L17.3949 19.25C9.78241 18.2963 8.74991 10.6838 8.74991 10.605L8.69741 10.185L11.1824 7.67375L9.86991 4.375H5.24991Z" fill="currentColor"></path>
    <path d="M23.625 11.375V9.625H19.6122L25.375 3.86225L24.1378 2.625L18.375 8.38775V4.375H16.625V11.375H23.625Z" fill="currentColor"></path>
  </symbol>
  <symbol xmlns="http://www.w3.org/2000/svg" viewBox="0 0 24 30" id="ic_question">
    <path d="M11 21H13V19H11V21ZM12 5C10.6868 5 9.38642 5.25866 8.17317 5.7612C6.95991 6.26375 5.85752 7.00035 4.92893 7.92893C3.05357 9.8043 2 12.3478 2 15C2 17.6522 3.05357 20.1957 4.92893 22.0711C5.85752 22.9997 6.95991 23.7362 8.17317 24.2388C9.38642 24.7413 10.6868 25 12 25C14.6522 25 17.1957 23.9464 19.0711 22.0711C20.9464 20.1957 22 17.6522 22 15C22 13.6868 21.7413 12.3864 21.2388 11.1732C20.7362 9.95991 19.9997 8.85752 19.0711 7.92893C18.1425 7.00035 17.0401 6.26375 15.8268 5.7612C14.6136 5.25866 13.3132 5 12 5ZM12 23C7.59 23 4 19.41 4 15C4 10.59 7.59 7 12 7C16.41 7 20 10.59 20 15C20 19.41 16.41 23 12 23ZM12 9C10.9391 9 9.92172 9.42143 9.17157 10.1716C8.42143 10.9217 8 11.9391 8 13H10C10 12.4696 10.2107 11.9609 10.5858 11.5858C10.9609 11.2107 11.4696 11 12 11C12.5304 11 13.0391 11.2107 13.4142 11.5858C13.7893 11.9609 14 12.4696 14 13C14 15 11 14.75 11 18H13C13 15.75 16 15.5 16 13C16 11.9391 15.5786 10.9217 14.8284 10.1716C14.0783 9.42143 13.0609 9 12 9Z" fill="currentColor"></path>
  </symbol>
  <symbol xmlns="http://www.w3.org/2000/svg" viewBox="0 0 18 18" id="ic_remove">
    <path d="M14.9062 2.25H11.8125V1.6875C11.8125 0.75702 11.0555 0 10.125 0H7.875C6.94452 0 6.1875 0.75702 6.1875 1.6875V2.25H3.09375C2.31834 2.25 1.6875 2.88084 1.6875 3.65625V5.625C1.6875 5.93564 1.93936 6.1875 2.25 6.1875H2.55741L3.04337 16.3928C3.0863 17.294 3.82669 18 4.72894 18H13.2711C14.1733 18 14.9137 17.294 14.9566 16.3928L15.4426 6.1875H15.75C16.0606 6.1875 16.3125 5.93564 16.3125 5.625V3.65625C16.3125 2.88084 15.6817 2.25 14.9062 2.25ZM7.3125 1.6875C7.3125 1.37735 7.56485 1.125 7.875 1.125H10.125C10.4351 1.125 10.6875 1.37735 10.6875 1.6875V2.25H7.3125V1.6875ZM2.8125 3.65625C2.8125 3.50118 2.93868 3.375 3.09375 3.375H14.9062C15.0613 3.375 15.1875 3.50118 15.1875 3.65625V5.0625C15.0141 5.0625 3.53085 5.0625 2.8125 5.0625V3.65625ZM13.8329 16.3393C13.8186 16.6397 13.5718 16.875 13.2711 16.875H4.72894C4.42818 16.875 4.18138 16.6397 4.16711 16.3393L3.68367 6.1875H14.3163L13.8329 16.3393Z" fill="currentColor"></path>
    <path d="M9 15.75C9.31064 15.75 9.5625 15.4981 9.5625 15.1875V7.875C9.5625 7.56436 9.31064 7.3125 9 7.3125C8.68936 7.3125 8.4375 7.56436 8.4375 7.875V15.1875C8.4375 15.4981 8.68932 15.75 9 15.75Z" fill="currentColor"></path>
    <path d="M11.8125 15.75C12.1231 15.75 12.375 15.4981 12.375 15.1875V7.875C12.375 7.56436 12.1231 7.3125 11.8125 7.3125C11.5019 7.3125 11.25 7.56436 11.25 7.875V15.1875C11.25 15.4981 11.5018 15.75 11.8125 15.75Z" fill="currentColor"></path>
    <path d="M6.1875 15.75C6.49814 15.75 6.75 15.4981 6.75 15.1875V7.875C6.75 7.56436 6.49814 7.3125 6.1875 7.3125C5.87686 7.3125 5.625 7.56436 5.625 7.875V15.1875C5.625 15.4981 5.87682 15.75 6.1875 15.75Z" fill="currentColor"></path>
  </symbol>
  <symbol xmlns="http://www.w3.org/2000/svg" viewBox="0 0 24 24" id="ic_search">
    <path d="M20.1818 23L15.3766 18.1948C14.7273 18.7143 13.9805 19.1255 13.1364 19.4286C12.2922 19.7316 11.3939 19.8831 10.4416 19.8831C8.08225 19.8831 6.08571 19.0662 4.45195 17.4325C2.81732 15.7978 2 13.8009 2 11.4416C2 9.08225 2.81732 7.08528 4.45195 5.45065C6.08571 3.81688 8.08225 3 10.4416 3C12.8009 3 14.7978 3.81688 16.4325 5.45065C18.0662 7.08528 18.8831 9.08225 18.8831 11.4416C18.8831 12.3939 18.7316 13.2922 18.4286 14.1364C18.1255 14.9805 17.7143 15.7273 17.1948 16.3766L22 21.1818L20.1818 23ZM10.4416 17.2857C12.0649 17.2857 13.445 16.7177 14.5818 15.5818C15.7177 14.445 16.2857 13.0649 16.2857 11.4416C16.2857 9.81818 15.7177 8.4381 14.5818 7.3013C13.445 6.16537 12.0649 5.5974 10.4416 5.5974C8.81818 5.5974 7.4381 6.16537 6.3013 7.3013C5.16537 8.4381 4.5974 9.81818 4.5974 11.4416C4.5974 13.0649 5.16537 14.445 6.3013 15.5818C7.4381 16.7177 8.81818 17.2857 10.4416 17.2857Z" fill="currentColor"></path>
  </symbol>
  <symbol xmlns="http://www.w3.org/2000/svg" viewBox="0 0 19 16" id="ic_telegram">
    <path d="M18.6719 2.36719C18.9062 1.27344 18.2812 0.84375 17.5781 1.11719L2.03125 7.09375C0.976562 7.52344 1.01562 8.10938 1.875 8.38281L5.82031 9.59375L15.0391 3.8125C15.4688 3.5 15.8984 3.69531 15.5469 3.96875L8.08594 10.6875L7.8125 14.7891C8.24219 14.7891 8.39844 14.6328 8.63281 14.3984L10.5469 12.5234L14.5703 15.4922C15.3125 15.9219 15.8594 15.6875 16.0547 14.8281L18.6719 2.36719Z" fill="currentColor"></path>
  </symbol>
  <symbol xmlns="http://www.w3.org/2000/svg" viewBox="0 0 21 12" id="ic_vk">
    <path d="M19.579 0.806C19.719 0.341 19.579 0 18.917 0H16.724C16.166 0 15.911 0.295 15.771 0.619C15.771 0.619 14.656 3.338 13.076 5.101C12.566 5.614 12.333 5.776 12.055 5.776C11.916 5.776 11.714 5.614 11.714 5.149V0.806C11.714 0.248 11.553 0 11.088 0H7.642C7.294 0 7.084 0.258 7.084 0.504C7.084 1.032 7.874 1.154 7.955 2.642V5.87C7.955 6.577 7.828 6.706 7.548 6.706C6.805 6.706 4.997 3.977 3.924 0.853C3.715 0.246 3.504 0.0010004 2.944 0.0010004H0.752C0.125 0.0010004 0 0.296 0 0.62C0 1.202 0.743 4.082 3.461 7.891C5.273 10.492 7.824 11.902 10.148 11.902C11.541 11.902 11.713 11.589 11.713 11.049V9.083C11.713 8.457 11.846 8.331 12.287 8.331C12.611 8.331 13.169 8.495 14.47 9.748C15.956 11.234 16.202 11.901 17.037 11.901H19.229C19.855 11.901 20.168 11.588 19.988 10.97C19.791 10.355 19.081 9.46 18.139 8.401C17.627 7.797 16.862 7.147 16.629 6.822C16.304 6.403 16.398 6.218 16.629 5.846C16.63 5.847 19.301 2.085 19.579 0.806Z" fill="currentColor"></path>
  </symbol>
</svg>